<!DOCTYPE svg PUBLIC "-//W3C//DTD SVG 1.1//EN" "http://www.w3.org/Graphics/SVG/1.1/DTD/svg11.dtd">
<!-- Uploaded to: SVG Repo, www.svgrepo.com, Transformed by: SVG Repo Mixer Tools -->
<svg fill="#ffffff" height="800px" width="800px" version="1.1" id="Capa_1" xmlns="http://www.w3.org/2000/svg" xmlns:xlink="http://www.w3.org/1999/xlink" viewBox="0 0 490.4 490.4" xml:space="preserve" stroke="#ffffff">
<g id="SVGRepo_bgCarrier" stroke-width="0"/>
<g id="SVGRepo_tracerCarrier" stroke-linecap="round" stroke-linejoin="round"/>
<g id="SVGRepo_iconCarrier"> <g> <g> <path d="M417.9,71.896h-65.7c-40,0-72.5,32.5-72.5,72.5c0,32,20.8,59.1,49.6,68.7v34.5c0,3.2,3.9,4.8,6.1,2.5l33.3-33.3h49.2 c40,0,72.5-32.5,72.5-72.5C490.4,104.396,457.9,71.896,417.9,71.896z M411.2,149.996l-24.2,24.2c-0.5,0.5-1.2,0.8-1.9,0.8 c-0.7,0-1.4-0.3-1.9-0.8l-24.3-24.3c-3.4-3.4-5.2-7.8-5.2-12.6s1.8-9.2,5.2-12.6c3.4-3.4,7.8-5.2,12.6-5.2c4.8,0,9.3,1.9,12.6,5.2 l1,1l1-1c3.4-3.4,7.9-5.2,12.6-5.2c4.8,0,9.2,1.9,12.6,5.2c3.4,3.4,5.2,7.9,5.2,12.6C416.4,142.196,414.6,146.696,411.2,149.996z"/> <path d="M162.7,354.496c-29.6-41.3,2.2-43.2,7.7-43.3l0,0l0,0c5.5,0,37.3,2,7.7,43.3l14.6,66.8H341v-48.1 c0-10.1-4.4-19.7-12.2-26.1c-43.5-35.8-90.5-59.5-100-64.2c-1.1-0.5-1.7-1.6-1.7-2.8v-32.4c5.1-8.8,8.4-18.1,9.7-26.5 c3.7-0.3,8.6-5.5,13.9-24.1c6.9-24.5,0.1-28.9-6.2-28.6c15.7-72-24.7-72.2-24.7-72.2c-3.4-15.1-24.8-30.8-44.8-26.6 c-20,4.1-61.2-0.5-61.2-0.5c-0.6,8.7,6.9,14.8,6.9,14.8c-36.2,22.1-27.9,70.6-24.6,84.6c-6.2,0-12.5,4.7-5.8,28.6 c5.3,18.6,10.2,23.8,13.9,24.1c1.3,8.4,4.6,17.7,9.7,26.5v32.4c0,1.2-0.7,2.3-1.7,2.8c-9.5,4.7-56.5,28.4-100,64.2 c-7.8,6.4-12.2,16.1-12.2,26.1v48.1h148.1L162.7,354.496z"/> </g> </g> </g>
</svg>